<svg width="1512" height="670" viewBox="0 0 1512 670" fill="none" xmlns="http://www.w3.org/2000/svg">
<path d="M1551 530.625C1547.88 501.187 1533.73 475.323 1527.5 442.004C1522.62 418.417 1521.16 392.975 1523.11 369.547C1524.93 346.905 1529.74 326.426 1530.88 305.071C1531.84 289.327 1530.4 274.028 1526.57 258.911C1519.27 231.932 1506.06 201.207 1493.27 175.344C1474.47 141.432 1451.71 110.241 1419.63 91.7545C1405.88 83.9568 1390.55 80.0978 1375.36 77.9577C1350.29 74.4174 1327.4 73.9848 1301.8 71.4007C1283.46 69.5225 1265.28 67.5645 1247.07 63.4778C1217.56 57.6039 1189.92 39.9708 1163.84 23.3849C1132.18 3.74831 1102.32 -12.1317 1070.4 12.7641C1034.87 39.8569 1003.71 80.5645 969.01 111.334C952.883 126.03 937.24 139.679 920.586 151.302C911.628 157.654 901.66 164.063 893.339 169.891C884.326 176.175 876.367 182.516 868.496 189.733C853.598 203.473 839.58 217.748 837 239.763C835.781 248.597 835.946 257.214 835.825 266.902C835.704 283.089 835.331 299.948 832.499 315.885C827.339 346.2 810.719 372.894 797.743 400.613C786.776 423.175 778.147 449.152 775.556 474.629C773.975 488.847 773.767 502.336 774.436 513.72C775.951 535.178 779.98 548.872 798.039 552.959C802.869 554.052 808.523 554.507 814.967 554.724C951.851 555.327 1259.9 554.724 1456.8 554.928C1473.59 554.951 1489.51 554.928 1505.93 554.928C1532.72 554.12 1552.51 557.091 1551 530.727V530.613V530.625Z" fill="url(#paint0_linear_183_5800)"/>
<path d="M1572.91 608.029C1566.34 601.717 1558.68 602.4 1545.58 595.256C1535.29 590.198 1541.46 582.279 1545.58 577.256C1549.41 572.401 1528.16 564.246 1530.56 559.667C1532.57 556.292 1553.64 526.497 1545.58 523.256C1530.21 517.471 1488.51 503.301 1461.58 497.756C1430.79 480.66 1403.12 493.22 1335.58 489.256C1306.62 487.584 1253.07 489.715 1221.08 489.256C1168.28 488.497 1122.98 495.31 1069.08 494.756C1030.48 494.353 990.425 489.132 952.078 488.256C905.674 471.145 812.648 502.826 757.728 499.27C691.066 495.059 625.271 501.418 558.078 506.756C483.256 512.565 385.129 509.953 336.129 514.5C302.174 517.651 -210.628 532.768 -245.692 535.26C-264.554 536.622 -285.542 537.996 -303.063 539.246C-322.04 540.593 -338.798 541.953 -355.371 543.5C-449.672 552.305 -90.9076 539.591 -100.422 543.5C-126.955 552.591 -78.9221 572.656 -92.4221 580.756C-105.922 588.856 -142.459 568.583 -148.422 572C-159.286 578.5 -110.101 574.812 -137.422 580.756C-160.514 585.593 -148.853 590.56 -154.308 596.023C-157.637 599.071 -158.076 601.964 -156.666 604.405C-153.476 609.005 -203.945 646.379 -165.922 647.256C-155.752 647.49 -26.0378 647.209 -12.4695 647.256C275.745 647.385 960.003 613.196 1374.58 613.24C1409.93 613.245 1443.44 613.24 1478.02 613.24C1534.42 613.067 1576.1 613.704 1572.91 608.051V608.027V608.029Z" fill="url(#paint1_linear_183_5800)"/>
<path d="M763.474 504.487L823.93 403.481L842.059 425.7L900.502 303.49L915.616 284.293L931.742 300.458L967.009 279.242L982.123 298.44L1000.26 258.038L1130.17 154L1151.4 205.506L1174.57 204.503L1215.89 269.142L1237.05 246.923L1309.6 280.257L1361.99 345.91L1392.22 334.457L1509.46 504.487H763.474Z" fill="url(#paint2_linear_183_5800)"/>
<path d="M1194.04 399.097L1179.2 456.382L1159.9 409.504L1119.82 416.202L1030.01 350.728V325.424L996.615 355.187L967.009 279.243L984.863 292.333L1000.25 258.038L1130.17 154L1072.31 263.68L1145.8 310.548L1130.17 329.238L1194.04 399.097Z" fill="url(#paint3_linear_183_5800)"/>
<path d="M1237.05 246.923L1215.89 269.142L1198.5 308.319L1161.38 344.78L1194.04 399.086L1279.4 409.504L1250.46 372.303L1309.83 361.146L1270.49 342.54L1276.43 311.298L1239.32 305.191L1237.05 246.923Z" fill="url(#paint4_linear_183_5800)"/>
<path d="M937.223 446.715L937.971 470.519L857.805 462.331L823.92 450.233L763.474 504.487L823.92 403.481L842.059 425.701L900.502 303.48L915.616 284.293L949.839 355.187L937.223 446.715Z" fill="url(#paint5_linear_183_5800)"/>
<path d="M1392.22 334.458L1375.96 358.737L1400.31 386.207L1375.96 400.967L1400.31 420.809L1337.38 402.499L1360.22 371.965L1329.25 363.819L1361.99 345.91L1392.22 334.458Z" fill="url(#paint6_linear_183_5800)"/>
<path d="M1488.85 428.489L1456.28 398.811L1433.89 406.355L1340.1 432.039L1279.45 476.382L1234.41 504.487H1537.38L1517.05 436.667L1488.85 428.489Z" fill="url(#paint7_linear_183_5800)"/>
<path d="M739.296 504.487L774.162 441.231L819.989 434.237L853.717 398.811L914.616 409.503L965.797 451.649H1020.21L1079.32 504.487H739.296Z" fill="url(#paint8_linear_183_5800)"/>
<path d="M1456.28 398.811L1426.96 427.327L1448.01 441.39L1373.52 444.644L1331.43 466.282L1336.28 478.179L1234.41 504.487L1279.45 476.382L1340.1 432.039L1456.28 398.811Z" fill="url(#paint9_linear_183_5800)"/>
<path d="M853.717 398.811L819.989 434.237L774.162 441.231L739.296 504.487L842.892 478.179L831.941 462.204L909.304 451.649L877.758 436.234L914.616 409.503L853.717 398.811Z" fill="url(#paint10_linear_183_5800)"/>
<path d="M1020.21 451.649L997.596 467.37L1008.9 473.467L933.134 486.272L956.237 468.955L965.797 451.649H1020.21Z" fill="url(#paint11_linear_183_5800)"/>
<path d="M938.699 407.57L966.555 504.486H910.842L938.699 407.57Z" fill="url(#paint12_linear_183_5800)"/>
<path d="M786.947 374.891L824.194 504.487H749.699L786.947 374.891Z" fill="url(#paint13_linear_183_5800)"/>
<path d="M892.556 440.872L910.842 504.487H874.269L892.556 440.872Z" fill="url(#paint14_linear_183_5800)"/>
<path d="M837.633 451.554L852.842 504.486H822.413L837.633 451.554Z" fill="url(#paint15_linear_183_5800)"/>
<path d="M1346.2 427.624L1368.29 504.487H1324.11L1346.2 427.624Z" fill="url(#paint16_linear_183_5800)"/>
<path d="M1388.91 392.842L1421 504.487H1356.82L1388.91 392.842Z" fill="url(#paint17_linear_183_5800)"/>
<path d="M1447.36 440.534L1465.74 504.487H1428.98L1447.36 440.534Z" fill="url(#paint18_linear_183_5800)"/>
<path d="M1299.9 457.798L1313.32 504.487H1286.48L1299.9 457.798Z" fill="url(#paint19_linear_183_5800)"/>
<path d="M1088.12 529.672C1091.73 511.653 1187.91 504.441 1236.27 503.82L1079.61 502.689C980.978 501.976 784.935 545.056 987.056 564.594C1532.1 617.28 905.54 604.023 767.763 600.118C629.985 596.212 521.207 593.971 344.213 597.058C167.22 600.146 -472.117 615.639 -511.422 635C-550.727 654.361 218.259 663.816 759.357 659.72C1418.7 654.73 1573.36 626.297 1553.21 605.791C1517.93 569.884 1083.61 552.195 1088.12 529.672Z" fill="url(#paint20_linear_183_5800)"/>
<path d="M1418.87 426.573L1446.72 523.49H1391.01L1418.87 426.573Z" fill="url(#paint21_linear_183_5800)"/>
<path d="M1267.12 393.894L1304.36 523.49H1229.87L1267.12 393.894Z" fill="url(#paint22_linear_183_5800)"/>
<path d="M1372.72 459.876L1391.01 523.49H1354.44L1372.72 459.876Z" fill="url(#paint23_linear_183_5800)"/>
<path d="M1317.8 470.557L1333.01 523.49H1302.58L1317.8 470.557Z" fill="url(#paint24_linear_183_5800)"/>
<path d="M1434.82 439.198L1401.16 556.305H1468.48L1434.82 439.198Z" fill="url(#paint25_linear_183_5800)"/>
<path d="M1513.5 399.715L1468.48 556.305H1558.5L1513.5 399.715Z" fill="url(#paint26_linear_183_5800)"/>
<path d="M1340.44 479.442L1318.35 556.305H1362.53L1340.44 479.442Z" fill="url(#paint27_linear_183_5800)"/>
<path d="M1380.93 492.353L1362.53 556.305H1399.31L1380.93 492.353Z" fill="url(#paint28_linear_183_5800)"/>
<path d="M754.511 426.102L720.857 543.209H788.175L754.511 426.102Z" fill="url(#paint29_linear_183_5800)"/>
<path d="M833.19 386.619L788.174 543.209H878.195L833.19 386.619Z" fill="url(#paint30_linear_183_5800)"/>
<path d="M660.136 466.345L638.044 543.209H682.227L660.136 466.345Z" fill="url(#paint31_linear_183_5800)"/>
<path d="M700.621 479.256L682.229 543.209H719.002L700.621 479.256Z" fill="url(#paint32_linear_183_5800)"/>
<path d="M754.511 426.102L720.857 543.209H788.175L754.511 426.102Z" fill="url(#paint33_linear_183_5800)"/>
<path d="M833.19 386.619L788.174 543.209H878.195L833.19 386.619Z" fill="url(#paint34_linear_183_5800)"/>
<path d="M660.136 466.345L638.044 543.209H682.227L660.136 466.345Z" fill="url(#paint35_linear_183_5800)"/>
<path d="M700.621 479.256L682.229 543.209H719.002L700.621 479.256Z" fill="url(#paint36_linear_183_5800)"/>
<path d="M982.399 469.563L948.734 586.67H1016.06L982.399 469.563Z" fill="url(#paint37_linear_183_5800)"/>
<path d="M924.998 509.806L902.907 586.67H947.09L924.998 509.806Z" fill="url(#paint38_linear_183_5800)"/>
<path d="M870.813 475.025L838.719 586.67H902.906L870.813 475.025Z" fill="url(#paint39_linear_183_5800)"/>
<path d="M820.338 522.718L801.956 586.67H838.719L820.338 522.718Z" fill="url(#paint40_linear_183_5800)"/>
<defs>
<linearGradient id="paint0_linear_183_5800" x1="1162.58" y1="0" x2="1162.58" y2="555" gradientUnits="userSpaceOnUse">
<stop stop-color="#69AD96"/>
<stop offset="1" stop-color="#9AD6C1"/>
</linearGradient>
<linearGradient id="paint1_linear_183_5800" x1="755.079" y1="494.256" x2="755.079" y2="613.256" gradientUnits="userSpaceOnUse">
<stop stop-color="#2C6D57"/>
<stop offset="1" stop-color="#458570"/>
</linearGradient>
<linearGradient id="paint2_linear_183_5800" x1="1136.47" y1="504.487" x2="1136.47" y2="154" gradientUnits="userSpaceOnUse">
<stop stop-color="#EFB160"/>
<stop offset="1" stop-color="#DFB174"/>
</linearGradient>
<linearGradient id="paint3_linear_183_5800" x1="1080.52" y1="154" x2="1080.52" y2="456.382" gradientUnits="userSpaceOnUse">
<stop stop-color="#9E7F5A"/>
<stop offset="1" stop-color="#382D20" stop-opacity="0.8"/>
</linearGradient>
<linearGradient id="paint4_linear_183_5800" x1="1235.61" y1="246.923" x2="1235.61" y2="409.504" gradientUnits="userSpaceOnUse">
<stop stop-color="#9E7F5A"/>
<stop offset="1" stop-color="#382D20" stop-opacity="0.8"/>
</linearGradient>
<linearGradient id="paint5_linear_183_5800" x1="856.656" y1="284.293" x2="856.656" y2="504.487" gradientUnits="userSpaceOnUse">
<stop stop-color="#9E7F5A"/>
<stop offset="1" stop-color="#382D20" stop-opacity="0.8"/>
</linearGradient>
<linearGradient id="paint6_linear_183_5800" x1="1364.78" y1="334.458" x2="1364.78" y2="420.809" gradientUnits="userSpaceOnUse">
<stop stop-color="#9E7F5A"/>
<stop offset="1" stop-color="#382D20" stop-opacity="0.8"/>
</linearGradient>
<linearGradient id="paint7_linear_183_5800" x1="1385.9" y1="398.811" x2="1385.9" y2="504.487" gradientUnits="userSpaceOnUse">
<stop stop-color="#A2A645"/>
<stop offset="1" stop-color="#C0C37F"/>
</linearGradient>
<linearGradient id="paint8_linear_183_5800" x1="909.309" y1="398.811" x2="909.309" y2="504.487" gradientUnits="userSpaceOnUse">
<stop stop-color="#A2A645"/>
<stop offset="1" stop-color="#C0C37F"/>
</linearGradient>
<linearGradient id="paint9_linear_183_5800" x1="1345.34" y1="398.811" x2="1345.34" y2="504.487" gradientUnits="userSpaceOnUse">
<stop stop-color="#627B52"/>
<stop offset="1" stop-color="#3A4A2F"/>
</linearGradient>
<linearGradient id="paint10_linear_183_5800" x1="826.956" y1="398.811" x2="826.956" y2="504.487" gradientUnits="userSpaceOnUse">
<stop stop-color="#627B52"/>
<stop offset="1" stop-color="#3A4A2F"/>
</linearGradient>
<linearGradient id="paint11_linear_183_5800" x1="976.674" y1="451.649" x2="976.674" y2="486.272" gradientUnits="userSpaceOnUse">
<stop stop-color="#627B52"/>
<stop offset="1" stop-color="#3A4A2F"/>
</linearGradient>
<linearGradient id="paint12_linear_183_5800" x1="938.699" y1="504.486" x2="938.699" y2="407.57" gradientUnits="userSpaceOnUse">
<stop stop-color="#2F463A"/>
<stop offset="1" stop-color="#36634C"/>
</linearGradient>
<linearGradient id="paint13_linear_183_5800" x1="786.947" y1="504.487" x2="786.947" y2="374.891" gradientUnits="userSpaceOnUse">
<stop stop-color="#2F463A"/>
<stop offset="1" stop-color="#36634C"/>
</linearGradient>
<linearGradient id="paint14_linear_183_5800" x1="892.556" y1="504.487" x2="892.556" y2="440.872" gradientUnits="userSpaceOnUse">
<stop stop-color="#2F463A"/>
<stop offset="1" stop-color="#36634C"/>
</linearGradient>
<linearGradient id="paint15_linear_183_5800" x1="837.627" y1="504.486" x2="837.627" y2="451.554" gradientUnits="userSpaceOnUse">
<stop stop-color="#2F463A"/>
<stop offset="1" stop-color="#36634C"/>
</linearGradient>
<linearGradient id="paint16_linear_183_5800" x1="1346.2" y1="504.487" x2="1346.2" y2="427.624" gradientUnits="userSpaceOnUse">
<stop stop-color="#2F463A"/>
<stop offset="1" stop-color="#36634C"/>
</linearGradient>
<linearGradient id="paint17_linear_183_5800" x1="1388.91" y1="504.487" x2="1388.91" y2="392.842" gradientUnits="userSpaceOnUse">
<stop stop-color="#2F463A"/>
<stop offset="1" stop-color="#36634C"/>
</linearGradient>
<linearGradient id="paint18_linear_183_5800" x1="1447.36" y1="504.487" x2="1447.36" y2="440.534" gradientUnits="userSpaceOnUse">
<stop stop-color="#2F463A"/>
<stop offset="1" stop-color="#36634C"/>
</linearGradient>
<linearGradient id="paint19_linear_183_5800" x1="1299.9" y1="504.487" x2="1299.9" y2="457.798" gradientUnits="userSpaceOnUse">
<stop stop-color="#2F463A"/>
<stop offset="1" stop-color="#36634C"/>
</linearGradient>
<linearGradient id="paint20_linear_183_5800" x1="1095.01" y1="479.517" x2="1057.66" y2="901.236" gradientUnits="userSpaceOnUse">
<stop stop-color="#9CE7FF"/>
<stop offset="1" stop-color="#9CE7FF"/>
</linearGradient>
<linearGradient id="paint21_linear_183_5800" x1="1418.87" y1="523.49" x2="1418.87" y2="426.573" gradientUnits="userSpaceOnUse">
<stop stop-color="#2F3B46"/>
<stop offset="1" stop-color="#36635B"/>
</linearGradient>
<linearGradient id="paint22_linear_183_5800" x1="1267.12" y1="523.49" x2="1267.12" y2="393.894" gradientUnits="userSpaceOnUse">
<stop stop-color="#2F3B46"/>
<stop offset="1" stop-color="#36635B"/>
</linearGradient>
<linearGradient id="paint23_linear_183_5800" x1="1372.72" y1="523.49" x2="1372.72" y2="459.876" gradientUnits="userSpaceOnUse">
<stop stop-color="#2F3B46"/>
<stop offset="1" stop-color="#36635B"/>
</linearGradient>
<linearGradient id="paint24_linear_183_5800" x1="1317.8" y1="523.49" x2="1317.8" y2="470.557" gradientUnits="userSpaceOnUse">
<stop stop-color="#2F3B46"/>
<stop offset="1" stop-color="#36635B"/>
</linearGradient>
<linearGradient id="paint25_linear_183_5800" x1="1434.82" y1="556.305" x2="1434.82" y2="439.198" gradientUnits="userSpaceOnUse">
<stop stop-color="#395C4A"/>
<stop offset="1" stop-color="#529F77"/>
</linearGradient>
<linearGradient id="paint26_linear_183_5800" x1="1513.49" y1="556.305" x2="1513.49" y2="399.715" gradientUnits="userSpaceOnUse">
<stop stop-color="#395C4A"/>
<stop offset="1" stop-color="#529F77"/>
</linearGradient>
<linearGradient id="paint27_linear_183_5800" x1="1340.44" y1="556.305" x2="1340.44" y2="479.442" gradientUnits="userSpaceOnUse">
<stop stop-color="#395C4A"/>
<stop offset="1" stop-color="#529F77"/>
</linearGradient>
<linearGradient id="paint28_linear_183_5800" x1="1380.92" y1="556.305" x2="1380.92" y2="492.353" gradientUnits="userSpaceOnUse">
<stop stop-color="#395C4A"/>
<stop offset="1" stop-color="#529F77"/>
</linearGradient>
<linearGradient id="paint29_linear_183_5800" x1="754.516" y1="543.209" x2="754.516" y2="426.102" gradientUnits="userSpaceOnUse">
<stop stop-color="#395C4A"/>
<stop offset="1" stop-color="#529F77"/>
</linearGradient>
<linearGradient id="paint30_linear_183_5800" x1="833.185" y1="543.209" x2="833.185" y2="386.619" gradientUnits="userSpaceOnUse">
<stop stop-color="#395C4A"/>
<stop offset="1" stop-color="#529F77"/>
</linearGradient>
<linearGradient id="paint31_linear_183_5800" x1="660.136" y1="543.209" x2="660.136" y2="466.345" gradientUnits="userSpaceOnUse">
<stop stop-color="#395C4A"/>
<stop offset="1" stop-color="#529F77"/>
</linearGradient>
<linearGradient id="paint32_linear_183_5800" x1="700.615" y1="543.209" x2="700.615" y2="479.256" gradientUnits="userSpaceOnUse">
<stop stop-color="#395C4A"/>
<stop offset="1" stop-color="#529F77"/>
</linearGradient>
<linearGradient id="paint33_linear_183_5800" x1="754.516" y1="543.209" x2="754.516" y2="426.102" gradientUnits="userSpaceOnUse">
<stop stop-color="#395C4A"/>
<stop offset="1" stop-color="#529F77"/>
</linearGradient>
<linearGradient id="paint34_linear_183_5800" x1="833.185" y1="543.209" x2="833.185" y2="386.619" gradientUnits="userSpaceOnUse">
<stop stop-color="#395C4A"/>
<stop offset="1" stop-color="#529F77"/>
</linearGradient>
<linearGradient id="paint35_linear_183_5800" x1="660.136" y1="543.209" x2="660.136" y2="466.345" gradientUnits="userSpaceOnUse">
<stop stop-color="#395C4A"/>
<stop offset="1" stop-color="#529F77"/>
</linearGradient>
<linearGradient id="paint36_linear_183_5800" x1="700.615" y1="543.209" x2="700.615" y2="479.256" gradientUnits="userSpaceOnUse">
<stop stop-color="#395C4A"/>
<stop offset="1" stop-color="#529F77"/>
</linearGradient>
<linearGradient id="paint37_linear_183_5800" x1="982.399" y1="586.67" x2="982.399" y2="469.563" gradientUnits="userSpaceOnUse">
<stop stop-color="#2F463A"/>
<stop offset="1" stop-color="#36634C"/>
</linearGradient>
<linearGradient id="paint38_linear_183_5800" x1="924.998" y1="586.67" x2="924.998" y2="509.806" gradientUnits="userSpaceOnUse">
<stop stop-color="#2F463A"/>
<stop offset="1" stop-color="#36634C"/>
</linearGradient>
<linearGradient id="paint39_linear_183_5800" x1="870.813" y1="586.67" x2="870.813" y2="475.025" gradientUnits="userSpaceOnUse">
<stop stop-color="#2F463A"/>
<stop offset="1" stop-color="#36634C"/>
</linearGradient>
<linearGradient id="paint40_linear_183_5800" x1="820.338" y1="586.67" x2="820.338" y2="522.718" gradientUnits="userSpaceOnUse">
<stop stop-color="#2F463A"/>
<stop offset="1" stop-color="#36634C"/>
</linearGradient>
</defs>
</svg>
