<svg width="510" height="451" viewBox="0 0 510 451" fill="none" xmlns="http://www.w3.org/2000/svg">
<path d="M1269.85 371.789C1264.18 366.331 1257.55 366.922 1246.22 360.744C1237.33 356.371 1242.66 349.523 1246.22 345.18C1249.54 340.982 1231.16 333.931 1233.24 329.971C1234.97 327.053 1253.2 301.29 1246.22 298.487C1232.93 293.485 1196.87 281.233 1173.59 276.438C1146.96 261.655 1123.04 272.515 1064.64 269.088C1039.59 267.642 993.293 269.485 965.631 269.088C919.982 268.431 880.809 274.323 834.2 273.844C800.822 273.495 766.19 268.981 733.032 268.223C692.907 253.428 612.469 280.822 564.981 277.747C507.34 274.106 450.448 279.604 392.347 284.22C327.65 289.243 242.802 286.984 200.432 290.916C171.072 293.641 -272.339 306.712 -302.659 308.867C-318.968 310.045 -337.116 311.233 -352.266 312.313C-368.675 313.478 -383.165 314.654 -397.496 315.992C-479.036 323.606 -168.819 312.612 -177.046 315.992C-199.989 323.853 -158.456 341.202 -170.129 348.206C-181.802 355.21 -213.395 337.68 -218.551 340.635C-227.945 346.255 -185.415 343.067 -209.04 348.206C-229.006 352.389 -218.924 356.684 -223.641 361.407C-226.519 364.043 -226.898 366.544 -225.679 368.655C-222.921 372.633 -266.561 404.95 -233.683 405.708C-224.889 405.91 -112.727 405.667 -100.995 405.708C148.219 405.819 739.884 376.257 1098.37 376.295C1128.93 376.299 1157.91 376.295 1187.81 376.295C1236.57 376.145 1272.61 376.696 1269.85 371.808V371.787V371.789Z" fill="url(#paint0_linear_183_6587)"/>
<path d="M137.734 302.599L189.93 215.394L205.582 234.577L256.04 129.065L269.089 112.49L283.012 126.447L313.459 108.13L326.509 124.705L342.169 89.8227L454.324 0L472.66 44.469L492.661 43.6024L528.332 99.4098L546.605 80.2266L609.238 109.006L654.473 165.689L680.571 155.801L781.797 302.599H137.734Z" fill="url(#paint1_linear_183_6587)"/>
<path d="M509.468 211.608L496.655 261.067L479.994 220.593L445.387 226.377L367.848 169.849V148.002L339.02 173.698L313.459 108.13L328.874 119.432L342.16 89.8227L454.323 0L404.375 94.6938L467.818 135.158L454.323 151.295L509.468 211.608Z" fill="url(#paint2_linear_183_6587)"/>
<path d="M546.604 80.2266L528.332 99.4098L513.317 133.234L481.277 164.713L509.468 211.599L583.167 220.593L558.179 188.475L609.438 178.843L575.478 162.779L580.601 135.806L548.561 130.534L546.604 80.2266Z" fill="url(#paint3_linear_183_6587)"/>
<path d="M287.743 252.721L288.389 273.272L219.176 266.203L189.921 255.758L137.733 302.599L189.921 215.394L205.581 234.577L256.039 129.056L269.089 112.491L298.635 173.698L287.743 252.721Z" fill="url(#paint4_linear_183_6587)"/>
<path d="M116.86 302.599L146.962 247.986L186.528 241.948L215.647 211.362L268.226 220.594L312.414 256.981H359.396L410.428 302.599H116.86Z" fill="url(#paint5_linear_183_6587)"/>
<path d="M215.647 211.362L186.528 241.948L146.962 247.986L116.86 302.599L206.302 279.886L196.847 266.093L263.64 256.981L236.404 243.672L268.226 220.594L215.647 211.362Z" fill="url(#paint6_linear_183_6587)"/>
<path d="M359.397 256.981L339.869 270.554L349.633 275.817L284.215 286.873L304.162 271.922L312.415 256.981H359.397Z" fill="url(#paint7_linear_183_6587)"/>
<path d="M289.017 218.924L313.068 302.599H264.966L289.017 218.924Z" fill="url(#paint8_linear_183_6587)"/>
<path d="M157.999 190.71L190.157 302.599H125.84L157.999 190.71Z" fill="url(#paint9_linear_183_6587)"/>
<path d="M249.178 247.676L264.966 302.599H233.39L249.178 247.676Z" fill="url(#paint10_linear_183_6587)"/>
<path d="M201.759 256.898L214.89 302.599H188.619L201.759 256.898Z" fill="url(#paint11_linear_183_6587)"/>
<path d="M418.041 324.342C421.158 308.786 504.195 302.559 545.945 302.023L410.694 301.046C325.536 300.431 156.279 337.625 330.784 354.493C801.355 399.981 260.406 388.535 141.453 385.163C22.5003 381.791 -71.4147 379.857 -224.225 382.522C-377.036 385.187 -556.339 414.673 -590.273 431.389C-624.208 448.105 -332.97 440.158 134.195 436.622C703.452 432.314 836.982 407.766 819.585 390.061C789.124 359.06 414.144 343.788 418.041 324.342Z" fill="url(#paint12_linear_183_6587)"/>
<path d="M129.994 234.924L100.938 336.03H159.059L129.994 234.924Z" fill="url(#paint13_linear_183_6587)"/>
<path d="M197.924 200.835L159.059 336.03H236.78L197.924 200.835Z" fill="url(#paint14_linear_183_6587)"/>
<path d="M48.5145 269.669L29.4414 336.03H67.5876L48.5145 269.669Z" fill="url(#paint15_linear_183_6587)"/>
<path d="M83.467 280.816L67.5879 336.03H99.337L83.467 280.816Z" fill="url(#paint16_linear_183_6587)"/>
<path d="M326.747 272.447L297.682 373.553H355.811L326.747 272.447Z" fill="url(#paint17_linear_183_6587)"/>
<path d="M277.189 307.192L258.116 373.553H296.262L277.189 307.192Z" fill="url(#paint18_linear_183_6587)"/>
<path d="M230.408 277.162L202.699 373.553H258.117L230.408 277.162Z" fill="url(#paint19_linear_183_6587)"/>
<path d="M186.829 318.339L170.959 373.553H202.699L186.829 318.339Z" fill="url(#paint20_linear_183_6587)"/>
<defs>
<linearGradient id="paint0_linear_183_6587" x1="562.69" y1="273.411" x2="562.69" y2="376.309" gradientUnits="userSpaceOnUse">
<stop stop-color="#08080B"/>
<stop offset="1" stop-color="#0F0F14"/>
</linearGradient>
<linearGradient id="paint1_linear_183_6587" x1="459.766" y1="302.599" x2="459.766" y2="3.85241e-06" gradientUnits="userSpaceOnUse">
<stop stop-color="#0F0B09"/>
<stop offset="1" stop-color="#110F0E"/>
</linearGradient>
<linearGradient id="paint2_linear_183_6587" x1="411.463" y1="0" x2="411.463" y2="261.067" gradientUnits="userSpaceOnUse">
<stop stop-color="#1E1B26"/>
<stop offset="1" stop-color="#1D1A15" stop-opacity="0.8"/>
</linearGradient>
<linearGradient id="paint3_linear_183_6587" x1="545.357" y1="80.2266" x2="545.357" y2="220.593" gradientUnits="userSpaceOnUse">
<stop stop-color="#1E1B26"/>
<stop offset="1" stop-color="#1D1A15" stop-opacity="0.8"/>
</linearGradient>
<linearGradient id="paint4_linear_183_6587" x1="218.184" y1="112.491" x2="218.184" y2="302.599" gradientUnits="userSpaceOnUse">
<stop stop-color="#1E1B26"/>
<stop offset="1" stop-color="#1D1A15" stop-opacity="0.8"/>
</linearGradient>
<linearGradient id="paint5_linear_183_6587" x1="263.644" y1="211.362" x2="263.644" y2="302.599" gradientUnits="userSpaceOnUse">
<stop stop-color="#232530"/>
<stop offset="1" stop-color="#191715"/>
</linearGradient>
<linearGradient id="paint6_linear_183_6587" x1="192.543" y1="211.362" x2="192.543" y2="302.599" gradientUnits="userSpaceOnUse">
<stop stop-color="#141925"/>
<stop offset="0.845" stop-color="#1A1714"/>
</linearGradient>
<linearGradient id="paint7_linear_183_6587" x1="321.806" y1="256.981" x2="321.806" y2="286.873" gradientUnits="userSpaceOnUse">
<stop stop-color="#141925"/>
<stop offset="0.845" stop-color="#1A1714"/>
</linearGradient>
<linearGradient id="paint8_linear_183_6587" x1="289.017" y1="302.599" x2="289.017" y2="218.924" gradientUnits="userSpaceOnUse">
<stop stop-color="#0E1612"/>
<stop offset="1" stop-color="#22373B"/>
</linearGradient>
<linearGradient id="paint9_linear_183_6587" x1="157.999" y1="302.599" x2="157.999" y2="190.71" gradientUnits="userSpaceOnUse">
<stop stop-color="#0E1612"/>
<stop offset="1" stop-color="#22373B"/>
</linearGradient>
<linearGradient id="paint10_linear_183_6587" x1="249.178" y1="302.599" x2="249.178" y2="247.676" gradientUnits="userSpaceOnUse">
<stop stop-color="#0E1612"/>
<stop offset="1" stop-color="#22373B"/>
</linearGradient>
<linearGradient id="paint11_linear_183_6587" x1="201.755" y1="302.599" x2="201.755" y2="256.898" gradientUnits="userSpaceOnUse">
<stop stop-color="#0E1612"/>
<stop offset="1" stop-color="#22373B"/>
</linearGradient>
<linearGradient id="paint12_linear_183_6587" x1="423.987" y1="281.04" x2="391.74" y2="645.139" gradientUnits="userSpaceOnUse">
<stop stop-color="#0E1314"/>
<stop offset="1" stop-color="#131317"/>
</linearGradient>
<linearGradient id="paint13_linear_183_6587" x1="129.999" y1="336.03" x2="129.999" y2="234.924" gradientUnits="userSpaceOnUse">
<stop stop-color="#111B15"/>
<stop offset="1" stop-color="#18272E"/>
</linearGradient>
<linearGradient id="paint14_linear_183_6587" x1="197.919" y1="336.03" x2="197.919" y2="200.835" gradientUnits="userSpaceOnUse">
<stop stop-color="#111B15"/>
<stop offset="1" stop-color="#18272E"/>
</linearGradient>
<linearGradient id="paint15_linear_183_6587" x1="48.5145" y1="336.03" x2="48.5145" y2="269.669" gradientUnits="userSpaceOnUse">
<stop stop-color="#111B15"/>
<stop offset="1" stop-color="#18272E"/>
</linearGradient>
<linearGradient id="paint16_linear_183_6587" x1="83.4624" y1="336.03" x2="83.4624" y2="280.816" gradientUnits="userSpaceOnUse">
<stop stop-color="#111B15"/>
<stop offset="1" stop-color="#18272E"/>
</linearGradient>
<linearGradient id="paint17_linear_183_6587" x1="326.747" y1="373.553" x2="326.747" y2="272.447" gradientUnits="userSpaceOnUse">
<stop stop-color="#0E1612"/>
<stop offset="1" stop-color="#22373B"/>
</linearGradient>
<linearGradient id="paint18_linear_183_6587" x1="277.189" y1="373.553" x2="277.189" y2="307.192" gradientUnits="userSpaceOnUse">
<stop stop-color="#0E1612"/>
<stop offset="1" stop-color="#22373B"/>
</linearGradient>
<linearGradient id="paint19_linear_183_6587" x1="230.408" y1="373.553" x2="230.408" y2="277.162" gradientUnits="userSpaceOnUse">
<stop stop-color="#0E1612"/>
<stop offset="1" stop-color="#22373B"/>
</linearGradient>
<linearGradient id="paint20_linear_183_6587" x1="186.829" y1="373.553" x2="186.829" y2="318.339" gradientUnits="userSpaceOnUse">
<stop stop-color="#0E1612"/>
<stop offset="1" stop-color="#22373B"/>
</linearGradient>
</defs>
</svg>
