<svg width="510" height="446" viewBox="0 0 510 446" fill="none" xmlns="http://www.w3.org/2000/svg">
<path d="M1269.85 371.789C1264.18 366.331 1257.55 366.922 1246.22 360.744C1237.33 356.371 1242.66 349.523 1246.22 345.18C1249.54 340.982 1231.16 333.931 1233.24 329.971C1234.97 327.053 1253.2 301.29 1246.22 298.487C1232.93 293.485 1196.87 281.233 1173.59 276.438C1146.96 261.655 1123.04 272.515 1064.64 269.088C1039.59 267.642 993.293 269.485 965.631 269.088C919.982 268.431 880.809 274.323 834.2 273.844C800.822 273.495 766.19 268.981 733.032 268.223C692.907 253.428 612.469 280.822 564.981 277.747C507.34 274.106 450.448 279.604 392.347 284.22C327.65 289.243 242.802 286.984 200.432 290.916C171.072 293.641 -272.339 306.712 -302.659 308.867C-318.968 310.045 -337.116 311.233 -352.266 312.313C-368.675 313.478 -383.165 314.654 -397.496 315.992C-479.036 323.606 -168.819 312.612 -177.046 315.992C-199.989 323.853 -158.456 341.202 -170.129 348.206C-181.802 355.21 -213.394 337.68 -218.551 340.635C-227.945 346.255 -185.415 343.067 -209.04 348.206C-229.006 352.389 -218.924 356.684 -223.641 361.407C-226.519 364.043 -226.898 366.544 -225.679 368.655C-222.921 372.633 -266.561 404.95 -233.683 405.708C-224.889 405.91 -112.727 405.667 -100.995 405.708C148.219 405.819 739.884 376.257 1098.37 376.295C1128.93 376.299 1157.91 376.295 1187.81 376.295C1236.57 376.145 1272.61 376.696 1269.85 371.808V371.787V371.789Z" fill="url(#paint0_linear_183_6437)"/>
<path d="M136.744 303.06L189.02 215.722L204.695 234.934L255.23 129.261L268.299 112.662L282.243 126.639L312.737 108.295L325.806 124.895L341.491 89.9595L453.816 -6.10352e-05L472.18 44.5366L492.212 43.6687L527.937 99.5611L546.238 80.3487L608.967 109.172L654.271 165.941L680.408 156.038L781.788 303.06H136.744Z" fill="url(#paint1_linear_183_6437)"/>
<path d="M509.045 211.931L496.213 261.465L479.526 220.929L444.867 226.721L367.209 170.107V148.227L338.337 173.963L312.737 108.295L328.176 119.614L341.482 89.9596L453.816 6.10352e-05L403.792 94.8381L467.332 135.364L453.816 151.525L509.045 211.931Z" fill="url(#paint2_linear_183_6437)"/>
<path d="M546.238 80.349L527.938 99.5614L512.901 133.437L480.812 164.964L509.046 211.922L582.857 220.93L557.831 188.763L609.168 179.115L575.156 163.027L580.287 136.013L548.198 130.733L546.238 80.349Z" fill="url(#paint3_linear_183_6437)"/>
<path d="M286.982 253.106L287.629 273.688L218.311 266.608L189.011 256.148L136.744 303.06L189.011 215.722L204.695 234.935L255.23 129.252L268.299 112.662L297.891 173.963L286.982 253.106Z" fill="url(#paint4_linear_183_6437)"/>
<path d="M115.839 303.06L145.987 248.364L185.613 242.316L214.776 211.684L267.435 220.929L311.691 257.372H358.744L409.854 303.06H115.839Z" fill="url(#paint5_linear_183_6437)"/>
<path d="M214.776 211.684L185.613 242.316L145.987 248.364L115.839 303.06L205.417 280.312L195.948 266.498L262.842 257.372L235.565 244.043L267.435 220.929L214.776 211.684Z" fill="url(#paint6_linear_183_6437)"/>
<path d="M358.744 257.372L339.186 270.966L348.965 276.237L283.447 287.31L303.424 272.336L311.69 257.372H358.744Z" fill="url(#paint7_linear_183_6437)"/>
<path d="M288.259 219.257L312.347 303.06H264.172L288.259 219.257Z" fill="url(#paint8_linear_183_6437)"/>
<path d="M157.042 191.001L189.249 303.06H124.834L157.042 191.001Z" fill="url(#paint9_linear_183_6437)"/>
<path d="M248.36 248.053L264.172 303.06H232.547L248.36 248.053Z" fill="url(#paint10_linear_183_6437)"/>
<path d="M200.869 257.289L214.02 303.06H187.708L200.869 257.289Z" fill="url(#paint11_linear_183_6437)"/>
<path d="M417.462 324.836C420.584 309.256 503.747 303.02 545.561 302.483L410.104 301.505C324.816 300.889 155.302 338.139 330.072 355.033C801.36 400.59 259.587 389.127 140.453 385.75C21.3194 382.373 -72.7394 380.435 -225.783 383.105C-378.826 385.774 -931.649 399.171 -965.635 415.912C-999.621 432.654 -334.693 440.828 133.185 437.287C703.309 432.972 837.042 408.387 819.619 390.655C789.112 359.607 413.56 344.312 417.462 324.836Z" fill="url(#paint12_linear_183_6437)"/>
<path d="M128.993 235.282L99.8936 336.542H158.102L128.993 235.282Z" fill="url(#paint13_linear_183_6437)"/>
<path d="M197.026 201.141L158.102 336.542H235.941L197.026 201.141Z" fill="url(#paint14_linear_183_6437)"/>
<path d="M47.3892 270.08L28.2871 336.542H66.4914L47.3892 270.08Z" fill="url(#paint15_linear_183_6437)"/>
<path d="M82.3955 281.244L66.4922 336.542H98.2896L82.3955 281.244Z" fill="url(#paint16_linear_183_6437)"/>
<path d="M128.993 235.282L99.8936 336.542H158.102L128.993 235.282Z" fill="url(#paint17_linear_183_6437)"/>
<path d="M197.026 201.141L158.102 336.542H235.941L197.026 201.141Z" fill="url(#paint18_linear_183_6437)"/>
<path d="M47.3892 270.08L28.2871 336.542H66.4914L47.3892 270.08Z" fill="url(#paint19_linear_183_6437)"/>
<path d="M82.3955 281.244L66.4922 336.542H98.2896L82.3955 281.244Z" fill="url(#paint20_linear_183_6437)"/>
<path d="M326.045 272.862L296.936 374.122H355.154L326.045 272.862Z" fill="url(#paint21_linear_183_6437)"/>
<path d="M276.413 307.66L257.311 374.122H295.515L276.413 307.66Z" fill="url(#paint22_linear_183_6437)"/>
<path d="M229.558 277.585L201.807 374.122H257.309L229.558 277.585Z" fill="url(#paint23_linear_183_6437)"/>
<path d="M185.914 318.823L170.02 374.122H201.808L185.914 318.823Z" fill="url(#paint24_linear_183_6437)"/>
<defs>
<linearGradient id="paint0_linear_183_6437" x1="562.69" y1="273.411" x2="562.69" y2="376.309" gradientUnits="userSpaceOnUse">
<stop stop-color="#2C6D57"/>
<stop offset="1" stop-color="#458570"/>
</linearGradient>
<linearGradient id="paint1_linear_183_6437" x1="459.266" y1="303.06" x2="459.266" y2="-5.71769e-05" gradientUnits="userSpaceOnUse">
<stop stop-color="#EFB160"/>
<stop offset="1" stop-color="#DFB174"/>
</linearGradient>
<linearGradient id="paint2_linear_183_6437" x1="410.891" y1="6.10352e-05" x2="410.891" y2="261.465" gradientUnits="userSpaceOnUse">
<stop stop-color="#9E7F5A"/>
<stop offset="1" stop-color="#382D20" stop-opacity="0.8"/>
</linearGradient>
<linearGradient id="paint3_linear_183_6437" x1="544.99" y1="80.349" x2="544.99" y2="220.93" gradientUnits="userSpaceOnUse">
<stop stop-color="#9E7F5A"/>
<stop offset="1" stop-color="#382D20" stop-opacity="0.8"/>
</linearGradient>
<linearGradient id="paint4_linear_183_6437" x1="217.318" y1="112.662" x2="217.318" y2="303.06" gradientUnits="userSpaceOnUse">
<stop stop-color="#9E7F5A"/>
<stop offset="1" stop-color="#382D20" stop-opacity="0.8"/>
</linearGradient>
<linearGradient id="paint5_linear_183_6437" x1="262.846" y1="211.684" x2="262.846" y2="303.06" gradientUnits="userSpaceOnUse">
<stop stop-color="#A2A645"/>
<stop offset="1" stop-color="#C0C37F"/>
</linearGradient>
<linearGradient id="paint6_linear_183_6437" x1="191.637" y1="211.684" x2="191.637" y2="303.06" gradientUnits="userSpaceOnUse">
<stop stop-color="#627B52"/>
<stop offset="1" stop-color="#3A4A2F"/>
</linearGradient>
<linearGradient id="paint7_linear_183_6437" x1="321.095" y1="257.372" x2="321.095" y2="287.31" gradientUnits="userSpaceOnUse">
<stop stop-color="#627B52"/>
<stop offset="1" stop-color="#3A4A2F"/>
</linearGradient>
<linearGradient id="paint8_linear_183_6437" x1="288.259" y1="303.06" x2="288.259" y2="219.257" gradientUnits="userSpaceOnUse">
<stop stop-color="#2F463A"/>
<stop offset="1" stop-color="#36634C"/>
</linearGradient>
<linearGradient id="paint9_linear_183_6437" x1="157.042" y1="303.06" x2="157.042" y2="191.001" gradientUnits="userSpaceOnUse">
<stop stop-color="#2F463A"/>
<stop offset="1" stop-color="#36634C"/>
</linearGradient>
<linearGradient id="paint10_linear_183_6437" x1="248.36" y1="303.06" x2="248.36" y2="248.053" gradientUnits="userSpaceOnUse">
<stop stop-color="#2F463A"/>
<stop offset="1" stop-color="#36634C"/>
</linearGradient>
<linearGradient id="paint11_linear_183_6437" x1="200.864" y1="303.06" x2="200.864" y2="257.289" gradientUnits="userSpaceOnUse">
<stop stop-color="#2F463A"/>
<stop offset="1" stop-color="#36634C"/>
</linearGradient>
<linearGradient id="paint12_linear_183_6437" x1="423.418" y1="281.469" x2="391.122" y2="646.122" gradientUnits="userSpaceOnUse">
<stop stop-color="#9CE7FF"/>
<stop offset="1" stop-color="#9CE7FF"/>
</linearGradient>
<linearGradient id="paint13_linear_183_6437" x1="128.998" y1="336.542" x2="128.998" y2="235.282" gradientUnits="userSpaceOnUse">
<stop stop-color="#395C4A"/>
<stop offset="1" stop-color="#529F77"/>
</linearGradient>
<linearGradient id="paint14_linear_183_6437" x1="197.021" y1="336.542" x2="197.021" y2="201.141" gradientUnits="userSpaceOnUse">
<stop stop-color="#395C4A"/>
<stop offset="1" stop-color="#529F77"/>
</linearGradient>
<linearGradient id="paint15_linear_183_6437" x1="47.3893" y1="336.542" x2="47.3893" y2="270.08" gradientUnits="userSpaceOnUse">
<stop stop-color="#395C4A"/>
<stop offset="1" stop-color="#529F77"/>
</linearGradient>
<linearGradient id="paint16_linear_183_6437" x1="82.3909" y1="336.542" x2="82.3909" y2="281.244" gradientUnits="userSpaceOnUse">
<stop stop-color="#395C4A"/>
<stop offset="1" stop-color="#529F77"/>
</linearGradient>
<linearGradient id="paint17_linear_183_6437" x1="128.998" y1="336.542" x2="128.998" y2="235.282" gradientUnits="userSpaceOnUse">
<stop stop-color="#395C4A"/>
<stop offset="1" stop-color="#529F77"/>
</linearGradient>
<linearGradient id="paint18_linear_183_6437" x1="197.021" y1="336.542" x2="197.021" y2="201.141" gradientUnits="userSpaceOnUse">
<stop stop-color="#395C4A"/>
<stop offset="1" stop-color="#529F77"/>
</linearGradient>
<linearGradient id="paint19_linear_183_6437" x1="47.3893" y1="336.542" x2="47.3893" y2="270.08" gradientUnits="userSpaceOnUse">
<stop stop-color="#395C4A"/>
<stop offset="1" stop-color="#529F77"/>
</linearGradient>
<linearGradient id="paint20_linear_183_6437" x1="82.3909" y1="336.542" x2="82.3909" y2="281.244" gradientUnits="userSpaceOnUse">
<stop stop-color="#395C4A"/>
<stop offset="1" stop-color="#529F77"/>
</linearGradient>
<linearGradient id="paint21_linear_183_6437" x1="326.045" y1="374.122" x2="326.045" y2="272.862" gradientUnits="userSpaceOnUse">
<stop stop-color="#2F463A"/>
<stop offset="1" stop-color="#36634C"/>
</linearGradient>
<linearGradient id="paint22_linear_183_6437" x1="276.413" y1="374.122" x2="276.413" y2="307.66" gradientUnits="userSpaceOnUse">
<stop stop-color="#2F463A"/>
<stop offset="1" stop-color="#36634C"/>
</linearGradient>
<linearGradient id="paint23_linear_183_6437" x1="229.558" y1="374.122" x2="229.558" y2="277.585" gradientUnits="userSpaceOnUse">
<stop stop-color="#2F463A"/>
<stop offset="1" stop-color="#36634C"/>
</linearGradient>
<linearGradient id="paint24_linear_183_6437" x1="185.914" y1="374.122" x2="185.914" y2="318.823" gradientUnits="userSpaceOnUse">
<stop stop-color="#2F463A"/>
<stop offset="1" stop-color="#36634C"/>
</linearGradient>
</defs>
</svg>
