<?xml version="1.0" standalone="no"?>
<!DOCTYPE svg PUBLIC "-//W3C//DTD SVG 20010904//EN"
 "http://www.w3.org/TR/2001/REC-SVG-20010904/DTD/svg10.dtd">
<svg version="1.0" xmlns="http://www.w3.org/2000/svg"
 width="261.000000pt" height="261.000000pt" viewBox="0 0 261.000000 261.000000"
 preserveAspectRatio="xMidYMid meet">
<metadata>
Created by potrace 1.14, written by Peter Selinger 2001-2017
</metadata>
<g transform="translate(0.000000,261.000000) scale(0.100000,-0.100000)"
fill="#000000" stroke="none">
<path d="M1190 1924 c-90 -19 -166 -49 -255 -99 l-75 -43 6 41 c3 23 7 47 9
54 7 23 -9 21 -69 -9 -208 -104 -353 -246 -397 -389 -19 -61 -25 -154 -11
-176 4 -6 37 -19 72 -28 62 -15 121 -47 109 -59 -3 -3 -54 8 -113 25 -59 17
-110 28 -113 26 -3 -3 2 -30 11 -60 9 -30 16 -58 16 -61 0 -3 -49 -30 -108
-59 -130 -65 -222 -122 -222 -138 0 -7 7 -36 17 -65 l16 -53 88 83 c73 68 214
176 232 176 2 0 17 -22 34 -48 26 -43 36 -50 84 -63 l54 -14 3 -53 c3 -51 4
-53 70 -106 70 -56 182 -124 182 -109 -1 4 -7 19 -15 33 -10 17 -14 58 -15
133 0 100 1 107 20 107 18 0 20 -7 20 -78 0 -115 16 -139 116 -175 43 -16 119
-37 167 -47 110 -23 297 -37 297 -22 0 5 -16 38 -35 72 -20 35 -34 64 -33 66
2 1 37 -5 78 -15 64 -14 75 -20 78 -39 3 -19 9 -22 50 -21 26 0 74 8 107 17
l60 17 3 101 c2 92 5 102 22 107 19 5 20 0 20 -68 0 -41 5 -77 10 -80 26 -16
320 158 320 189 0 26 -55 39 -140 31 -44 -4 -80 -4 -80 -1 0 3 19 18 43 33 61
38 157 133 157 155 0 10 -2 18 -5 18 -3 0 -80 -9 -172 -20 -91 -12 -168 -19
-171 -16 -3 3 3 15 13 26 14 15 21 17 26 8 6 -9 45 -8 180 6 127 14 173 15
178 7 9 -13 85 64 145 147 46 63 156 252 156 268 0 6 -26 17 -57 24 -115 25
-283 81 -399 132 -113 49 -124 52 -219 56 -89 4 -110 1 -175 -22 -41 -14 -76
-23 -78 -21 -3 2 5 21 17 41 12 20 20 38 18 40 -2 3 -39 11 -81 19 -95 18
-180 18 -266 -1z m-312 -316 c86 -52 118 -164 71 -247 -12 -23 -32 -47 -44
-55 -21 -14 -21 -13 2 32 49 97 13 224 -81 284 -27 17 -28 19 -6 13 14 -4 40
-16 58 -27z m921 -7 c47 -23 91 -79 102 -131 13 -59 -4 -114 -52 -164 l-40
-41 22 43 c30 59 35 119 15 178 -20 58 -39 83 -92 119 -30 21 -33 26 -14 20
14 -4 41 -15 59 -24z m-446 -327 c98 -24 157 -50 157 -66 0 -4 -7 -8 -16 -8
-21 0 -267 71 -278 81 -13 11 4 31 21 25 8 -4 61 -18 116 -32z m-213 -22 c0
-4 -76 -16 -170 -27 -131 -16 -170 -18 -170 -8 0 17 37 37 42 22 2 -7 41 -6
123 4 146 18 175 19 175 9z"/>
<path d="M2604 1300 c0 -52 1 -74 3 -47 2 26 2 68 0 95 -2 26 -3 4 -3 -48z"/>
<path d="M1253 3 c26 -2 68 -2 95 0 26 2 4 3 -48 3 -52 0 -74 -1 -47 -3z"/>
</g>
</svg>
