<svg width="585" height="226" viewBox="0 0 585 226" fill="none" xmlns="http://www.w3.org/2000/svg">
<path d="M232 14C226.477 14 222 18.4772 222 24V151C222 164.255 211.255 175 198 175H190.5C177.245 175 166.5 164.255 166.5 151V77.75C166.5 72.3652 162.135 68 156.75 68C151.365 68 147 72.3652 147 77.75V127H0V113H133V77.75C133 64.6332 143.633 54 156.75 54C169.867 54 180.5 64.6332 180.5 77.75V151C180.5 156.523 184.977 161 190.5 161H198C203.523 161 208 156.523 208 151V24C208 10.7452 218.745 0 232 0H234C247.255 0 258 10.7452 258 24V134.5C258 140.023 262.477 144.5 268 144.5H275.5C281.023 144.5 285.5 140.023 285.5 134.5V60.5C285.5 47.2452 296.245 36.5 309.5 36.5H314C327.255 36.5 338 47.2452 338 60.5V201.5C338 207.023 342.477 211.5 348 211.5H351.5C357.023 211.5 361.5 207.023 361.5 201.5V57.5C361.5 44.2452 372.245 33.5 385.5 33.5H389.5C402.755 33.5 413.5 44.2452 413.5 57.5V151C413.5 156.523 417.977 161 423.5 161H426.5C432.023 161 436.5 156.523 436.5 151V116.5H585V130.5H450.5V151C450.5 164.255 439.755 175 426.5 175H423.5C410.245 175 399.5 164.255 399.5 151V57.5C399.5 51.9772 395.023 47.5 389.5 47.5H385.5C379.977 47.5 375.5 51.9771 375.5 57.5V201.5C375.5 214.755 364.755 225.5 351.5 225.5H348C334.745 225.5 324 214.755 324 201.5V60.5C324 54.9772 319.523 50.5 314 50.5H309.5C303.977 50.5 299.5 54.9772 299.5 60.5V134.5C299.5 147.755 288.755 158.5 275.5 158.5H268C254.745 158.5 244 147.755 244 134.5V24C244 18.4772 239.523 14 234 14H232Z" fill="white"/>
</svg>
