<svg width="267" height="133" viewBox="0 0 267 133" fill="none" xmlns="http://www.w3.org/2000/svg">
<path fill-rule="evenodd" clip-rule="evenodd" d="M63.9394 63.8606C68.1237 64.9884 72.4506 66.0831 76.6525 67.1445C76.9889 67.3589 77.3041 67.5847 77.6109 67.8044L77.6116 67.8049L77.6117 67.8049L77.6118 67.805C78.204 68.2291 78.7649 68.6308 79.3855 68.8853C81.382 69.7041 81.7349 71.1118 81.1851 73.0624L58.6863 66.6081C58.7195 66.9161 58.7388 67.1976 58.7569 67.4594C58.7921 67.9717 58.8222 68.4083 58.9404 68.8192C59.6996 71.4595 60.4856 74.0921 61.2715 76.7246L61.2717 76.7253L61.2719 76.7259L61.2721 76.7265L61.2722 76.7271L61.2724 76.7277L61.2726 76.7283L61.2728 76.729L61.273 76.7296L61.2732 76.7302L61.2733 76.7308L61.2735 76.7314L61.2737 76.7321L61.2739 76.7327L61.2741 76.7333L61.2743 76.7339L61.2744 76.7345L61.2746 76.7351L61.2748 76.7358L61.275 76.7364C61.5163 77.5447 61.7576 78.3531 61.9982 79.1616L61.8342 79.5097C60.0073 80.4158 58.1824 81.304 56.3642 82.1888L56.3641 82.1888L56.3641 82.1889C51.6951 84.4611 47.0704 86.7118 42.5697 89.1903C28.4907 96.9436 15.7464 106.536 4.81268 118.391C2.88029 120.486 1.58182 123.311 0.473922 126C-0.807621 129.11 0.577097 131.318 3.81602 132.052C8.88366 133.2 13.1437 131.866 16.5769 127.855C17.4998 126.777 18.4213 125.698 19.3428 124.618L19.3447 124.616L19.3449 124.616L19.345 124.615C23.5581 119.68 27.7719 114.743 32.1234 109.933C41.4606 99.6123 51.8551 90.5594 64.0975 83.7352L64.0634 83.6609L64.1288 83.7184L64.1803 83.8249C64.6077 84.5484 65.0244 85.2607 65.4353 85.963C66.7085 88.1392 67.9259 90.2201 69.2329 92.2424C69.6706 92.9198 70.5406 93.4781 71.3272 93.7359C73.7363 94.5255 76.1688 95.2431 78.6295 95.9689L78.632 95.9697C79.5376 96.2368 80.4469 96.505 81.3603 96.7784C81.3603 97.5874 81.3537 98.3926 81.3472 99.1948V99.1954V99.1955V99.1957V99.1959V99.196V99.1962V99.1963V99.1965V99.1967V99.1968V99.197V99.1971V99.1973V99.1975V99.1976V99.1978V99.1979V99.1981V99.1983C81.3304 101.275 81.3137 103.332 81.4111 105.383C81.4521 106.247 81.8681 107.371 82.5048 107.882C82.8972 108.197 83.2895 108.511 83.6819 108.826L83.6864 108.83L83.6868 108.83L83.6871 108.831C87.6633 112.023 91.6463 115.221 95.8336 118.114C98.0446 119.642 100.44 120.9 102.835 122.158C103.905 122.72 104.975 123.282 106.029 123.869L106.337 123.476C106.13 123.15 105.916 122.828 105.703 122.506C105.209 121.764 104.716 121.021 104.303 120.235C104.243 120.12 104.18 120.003 104.117 119.885C103.657 119.028 103.165 118.108 103.15 117.214C103.068 112.035 103.081 106.854 103.094 101.674C103.098 100.335 103.101 98.9958 103.103 97.6568C103.103 97.3787 103.144 97.1006 103.188 96.797C103.21 96.6473 103.233 96.4914 103.252 96.3263L107.705 95.9569L108.004 96.0951L107.892 96.112C107.892 97.4404 107.904 98.7542 107.916 100.057V100.058V100.058V100.058V100.058V100.059V100.059V100.059V100.059V100.059V100.059V100.059V100.059V100.06V100.06V100.06V100.06V100.06V100.06C107.945 103.132 107.973 106.144 107.834 109.148C107.706 111.901 108.434 114.128 110.012 116.362C111.176 118.009 112.45 119.185 114.32 119.806C115.838 120.31 117.349 120.836 118.859 121.362L118.859 121.362C121.727 122.359 124.594 123.357 127.505 124.206C136.401 126.801 145.544 128.047 154.766 128.626C157.196 128.778 159.638 128.739 162.094 128.699L162.097 128.699H162.097H162.097H162.097H162.098H162.098H162.098H162.099H162.099H162.099H162.099H162.1H162.1H162.1H162.1H162.101H162.101H162.101C163.222 128.68 164.345 128.662 165.47 128.662L156.792 113.105C162.728 115.585 168.33 116.823 174.161 116.986L174.161 116.876L174.182 116.878L174.181 117.14C174.312 119.031 174.452 120.594 174.603 122.286C174.589 122.283 174.824 122.357 175.061 122.367C181.718 122.656 188.006 120.84 194.296 119.024L194.794 118.88C195.896 118.562 196.074 117.786 196.066 116.746C196.037 112.747 196.041 108.748 196.045 104.75C196.047 103.356 196.048 101.963 196.048 100.57L196.048 97.8041L201.233 97.4109L201.269 97.4062V97.5776L201.238 97.5824C201.242 102.869 201.242 107.984 201.242 113.147C209.024 111.411 228.603 99.6682 233.674 93.7549C233.093 93.4586 232.524 93.1377 231.955 92.8175L231.955 92.8173C229.602 91.4916 227.273 90.179 224.27 90.6891C222.445 90.9991 220.494 91.2295 218.575 91.456L218.575 91.4561L218.575 91.4561L218.574 91.4561L218.574 91.4561L218.574 91.4562L218.574 91.4562L218.574 91.4562L218.574 91.4562L218.574 91.4562L218.574 91.4563L218.573 91.4563L218.572 91.4564C217.164 91.6227 215.774 91.7868 214.465 91.9788C212.809 91.6427 211.361 91.3471 209.414 90.9493C210.073 90.5847 210.671 90.2624 211.226 89.9633L211.227 89.963C212.315 89.3766 213.238 88.8792 214.127 88.3259C220.01 84.6637 225.127 80.0812 229.948 75.1163C231.176 73.8521 231.605 72.6486 231.063 70.7958L195.548 75.151C195.737 74.6182 195.874 74.1076 196.001 73.6368C196.253 72.6982 196.462 71.918 196.959 71.4368C197.84 70.5825 198.906 69.9649 200.01 69.3247C200.396 69.1012 200.787 68.875 201.176 68.635L201.23 68.7442C201.194 69.39 201.212 70.0211 201.229 70.6166V70.6171V70.6176V70.6182V70.6186V70.6191V70.6196V70.6201V70.6206V70.621V70.6215V70.622V70.6225V70.6229V70.6234V70.6238V70.6242V70.6246V70.625V70.6253C201.238 70.9426 201.247 71.2497 201.247 71.5435L236.621 67.6L237.05 70.1069C249.507 57.5936 258.631 43.0619 266.194 27.3635C266.063 27.3054 265.945 27.2474 265.836 27.1935L265.835 27.1931L265.834 27.1927L265.834 27.1924C265.62 27.0869 265.438 26.9969 265.245 26.9518C263.914 26.6399 262.58 26.3402 261.246 26.0404L261.245 26.0403C258.69 25.4662 256.134 24.892 253.601 24.2326C241.269 21.0227 229.156 17.1319 217.688 11.4912C206.881 6.17576 195.73 4.96409 184.175 8.24268C181.425 9.0229 178.739 10.0284 176.013 11.0484L176.012 11.0487C174.756 11.519 173.491 11.9923 172.208 12.4481C173.095 9.06923 174.779 6.13847 177.318 3.35019C152.007 -4.50513 129.745 2.09637 108.844 16.453L110.603 4.47391L110.099 4.15223C109.22 4.58011 108.337 5.00079 107.455 5.42147C105.537 6.33585 103.619 7.25022 101.739 8.23851C90.0076 14.4066 79.3484 21.9741 71.327 32.7563C64.7435 41.6055 61.5085 51.4772 63.196 62.6415C63.2637 63.0892 63.6001 63.7692 63.9394 63.8606ZM202.442 67.9213L202.458 67.9228L202.481 67.9243L202.495 67.925L202.512 67.9256C203.641 67.3336 204.671 66.791 205.623 66.1341C214.298 60.1469 217.011 49.2761 211.598 40.6326C206.926 33.1715 199.794 29.8261 190.946 29.7385C187.544 29.195 184.27 29.0402 180.998 29.6269C184.271 29.0412 187.553 29.2063 191.041 29.8578C196.602 31.3752 201.144 34.0215 204.442 38.4992C209.962 45.9949 210.69 55.4505 205.454 63.509C204.785 64.5376 204.073 65.5368 203.36 66.5361L203.357 66.5394L203.356 66.5417C203.041 66.9829 202.726 67.4241 202.415 67.8678L202.442 67.9213ZM174.195 107.097C174.199 105.032 174.207 102.985 174.223 100.941C174.207 102.989 174.199 105.038 174.193 107.096L174.195 107.097ZM85.3606 28.7778L85.3606 28.7781C85.004 28.8879 84.6481 29.0066 84.293 29.1343C84.6481 29.0065 85.004 28.8878 85.3606 28.7778ZM98.873 28.3869V28.4842C99.5047 28.7427 100.1 28.9729 100.67 29.1936L100.67 29.1936C101.494 29.5126 102.267 29.8116 103.023 30.1468C115.9 35.8527 120.103 52.2748 111.577 63.4544C111.155 64.0068 110.8 64.6102 110.445 65.2135C110.319 65.4266 110.194 65.6397 110.065 65.8506L110.244 65.9696C111.087 65.5248 111.846 65.1097 112.533 64.5972C117.688 60.7542 120.94 55.7276 121.034 49.1747C121.209 36.8153 109.754 28.6802 98.873 28.3869ZM107.748 67.4811L107.907 67.719C107.889 68.5026 107.929 69.2336 107.979 70.1233L107.984 70.1227C118.151 69.0074 128.27 67.8974 138.54 66.7791L137.81 69.3328L137.783 69.4275L137.794 69.5253L137.795 69.5319C137.03 69.5944 136.266 69.6535 135.501 69.7125C133.313 69.8815 131.125 70.0505 128.947 70.3009C125.286 70.7217 121.632 71.1908 117.977 71.6598C116.103 71.9003 114.229 72.1408 112.354 72.3748C110.283 72.6334 108.211 72.8819 106.118 73.133L106.117 73.133L106.117 73.1331L106.116 73.1331L106.116 73.1332L106.116 73.1332L106.115 73.1333L106.115 73.1333L106.114 73.1333L106.114 73.1334L106.114 73.1334L106.11 73.1339L106.105 73.1344L106.098 73.1353L106.094 73.1358L106.091 73.1361L106.09 73.1362L106.09 73.1363L106.089 73.1364L106.088 73.1365L106.08 73.1375C105.128 73.2517 104.171 73.3664 103.209 73.4828C102.881 71.6791 102.725 70.1607 104.865 69.383C105.525 69.1432 106.111 68.6969 106.749 68.2105C107.065 67.9705 107.392 67.7207 107.748 67.4811ZM96.4308 27.9751L96.4493 27.9776H96.4321L96.4308 27.9751ZM143.547 65.7059L143.467 65.6849L143.456 65.7504L143.64 65.808C153.877 68.8257 163.881 71.7152 173.893 74.607C174.915 73.2808 174.658 71.9603 173.646 71.0746C172.863 70.3903 171.943 69.8653 171.003 69.3292L171.003 69.3291C170.58 69.0874 170.152 68.8436 169.731 68.5818L166.919 67.7379C160.475 66.104 154.139 64.4586 147.813 62.7778L147.684 62.7434C146.329 62.3832 145.649 62.2023 145.201 62.4469C144.749 62.6938 144.534 63.374 144.102 64.7406L144.101 64.741L144.1 64.7446C143.993 65.0834 143.827 65.4032 143.547 65.7059ZM164.443 61.7675C164.118 61.1528 163.822 60.5209 163.557 59.8699L163.556 59.8705C163.819 60.52 164.112 61.1507 164.432 61.7644L164.443 61.7675ZM138.751 75.3344L138.753 75.3342C138.801 76.1529 138.857 76.9674 138.928 77.7805C138.857 76.9662 138.8 76.1507 138.751 75.3344ZM219.518 95.0308L219.518 95.0308L220.933 94.8465L219.518 95.0308Z" fill="white"/>
</svg>
