<svg width="909" height="1290" viewBox="0 0 909 1290" fill="none" xmlns="http://www.w3.org/2000/svg">
<mask id="mask0_10_29" style="mask-type:alpha" maskUnits="userSpaceOnUse" x="0" y="0" width="909" height="1290">
<path d="M0 0H909V1290H0V0Z" fill="black"/>
</mask>
<g mask="url(#mask0_10_29)">
<path d="M0 0H909V1290H0V0Z" fill="white" fill-opacity="0.35"/>
<path d="M301 0H302V1290H301V0Z" fill="white"/>
<path d="M605 0H606V1290H605V0Z" fill="white"/>
<path d="M1100 503L1100 504L-190 504L-190 503L1100 503Z" fill="white"/>
<path d="M1100 884L1100 885L-190 885L-190 884L1100 884Z" fill="white"/>
<path d="M533.566 667.382C531.177 634.515 502.719 608.481 468.082 608.481C440.602 608.481 416.39 624.729 406.732 649.262C406.058 649.238 405.381 649.227 404.7 649.227C373.495 649.227 348.109 674.613 348.109 705.818C348.109 706.767 348.307 709.303 348.519 711.528C337.459 717.978 330 729.854 330 743.45C330 764.241 347.563 781.101 368.528 780.502C368.65 780.513 368.773 780.517 368.898 780.517H449.096C449.376 780.517 449.653 780.491 449.922 780.44C461.736 779.617 471.653 772.435 476.394 762.402L533.944 762.344C559.209 761.044 579 740.191 579 714.872C579 689.364 558.808 668.485 533.566 667.382ZM448.855 771.434C448.742 771.439 448.631 771.45 448.523 771.462H369.435C369.2 771.438 368.961 771.434 368.719 771.436C368.304 771.453 367.886 771.462 367.466 771.462C351.8 771.462 339.055 758.895 339.055 743.45C339.055 728.005 351.798 715.438 367.466 715.438C368.412 715.438 369.349 715.485 370.273 715.573C372.375 715.781 374.334 714.503 375.004 712.503C379.508 699.027 392.596 689.972 407.566 689.972C426.39 689.972 441.704 704.442 441.704 722.266C441.704 723.507 442.212 724.694 443.112 725.55C444.013 726.405 445.232 726.879 446.463 726.788C446.86 726.767 447.261 726.757 447.662 726.757C460.17 726.757 470.346 736.785 470.346 749.11C470.346 761.013 460.906 770.82 448.855 771.434ZM533.708 753.296L479.08 753.346C479.269 751.957 479.401 750.549 479.401 749.109C479.401 732.742 466.683 719.26 450.515 717.826C448.212 697.11 429.829 680.917 407.566 680.917C389.912 680.917 374.299 691.017 367.66 706.383C367.594 706.383 367.529 706.383 367.466 706.383C363.934 706.383 360.527 706.902 357.286 707.81C357.21 706.798 357.166 706.052 357.165 705.817C357.165 679.605 378.49 658.28 404.702 658.28C406.282 658.28 407.848 658.358 409.388 658.508C411.476 658.729 413.465 657.436 414.13 655.422C421.614 632.762 443.296 617.535 468.083 617.535C499.288 617.535 524.675 641.907 524.675 671.863C524.675 674.317 526.629 676.325 529.083 676.388C529.631 676.403 530.184 676.397 530.745 676.394L531.466 676.389C552.685 676.389 569.947 693.651 569.947 714.871C569.946 735.368 553.928 752.249 533.708 753.296Z" fill="#D9D9D9" fill-opacity="0.5"/>
</g>
</svg>
