<svg width="67" height="70" viewBox="0 0 67 70" fill="none" xmlns="http://www.w3.org/2000/svg">
<path d="M63.1102 34.8918C65.4 35.2271 66.992 37.4105 66.6667 39.7686C65.6709 46.9788 62.485 53.68 57.5656 58.9119C52.6457 64.1434 46.2447 67.6378 39.2787 68.8941C32.3128 70.1503 25.1396 69.1041 18.7864 65.9051C15.8009 64.4021 13.0684 62.4598 10.6664 60.1552L7.14852 63.7781C4.51052 66.495 0 64.5708 0 60.7288V43.536H16.6944C20.4251 43.536 22.2934 48.1811 19.6554 50.898L16.5934 54.0513C18.3415 55.6892 20.3158 57.0748 22.4649 58.1568C27.2298 60.5558 32.6097 61.3403 37.8341 60.3984C43.0584 59.4561 47.8594 56.8354 51.549 52.9115C55.239 48.9876 57.6284 43.9622 58.375 38.5542C58.7008 36.1962 60.8209 34.5565 63.1102 34.8918ZM48.2136 3.91709C51.2043 5.4229 53.9409 7.36931 56.3462 9.67891L59.8515 6.06883C62.4896 3.35209 67 5.27619 67 9.11824V26.2862H50.3296C46.5989 26.2862 44.7305 21.641 47.3686 18.9243L50.4192 15.7826C48.668 14.1398 46.6894 12.7503 44.5353 11.6656C39.7702 9.26651 34.3903 8.4818 29.1659 9.424C23.9415 10.3661 19.1406 12.9869 15.4509 16.9107C11.7611 20.8345 9.37171 25.8603 8.62495 31.2681C8.29933 33.6261 6.17924 35.2658 3.88959 34.9304C1.59994 34.5951 0.00777137 32.4117 0.333386 30.0537C1.32907 22.8433 4.51488 16.1424 9.43456 10.9106C14.3542 5.67876 20.7554 2.18451 27.7213 0.928272C34.6872 -0.327959 41.8604 0.71826 48.2136 3.91709Z" fill="#1A1A1A"/>
</svg>
